<mxfile>
  <diagram id="mTRobf0_bCa-tJGyI-Jt" name="OVERALL">
    <mxGraphModel dx="2184" dy="1658" grid="1" gridSize="10" guides="1" tooltips="1" connect="1" arrows="1" fold="1" page="1" pageScale="1" pageWidth="850" pageHeight="1100" background="#FFFFFF" math="0" shadow="0">
      <root>
        <mxCell id="0" />
        <mxCell id="1" parent="0" />
        <mxCell id="8" style="edgeStyle=none;html=1;entryX=0.5;entryY=0;entryDx=0;entryDy=0;" parent="1" source="2" target="3" edge="1">
          <mxGeometry relative="1" as="geometry" />
        </mxCell>
        <mxCell id="2" value="START" style="ellipse;whiteSpace=wrap;html=1;" parent="1" vertex="1">
          <mxGeometry x="240" y="90" width="160" height="70" as="geometry" />
        </mxCell>
        <mxCell id="7" style="edgeStyle=none;html=1;entryX=0.5;entryY=0;entryDx=0;entryDy=0;" parent="1" source="3" target="4" edge="1">
          <mxGeometry relative="1" as="geometry" />
        </mxCell>
        <mxCell id="3" value="SOURCE FILE" style="rounded=0;whiteSpace=wrap;html=1;" parent="1" vertex="1">
          <mxGeometry x="260" y="190" width="120" height="60" as="geometry" />
        </mxCell>
        <mxCell id="6" style="edgeStyle=none;html=1;entryX=0.5;entryY=0;entryDx=0;entryDy=0;" parent="1" source="4" target="5" edge="1">
          <mxGeometry relative="1" as="geometry" />
        </mxCell>
        <mxCell id="87" style="edgeStyle=none;html=1;" parent="1" source="4" edge="1">
          <mxGeometry relative="1" as="geometry">
            <mxPoint x="40" y="320.0000000000002" as="targetPoint" />
          </mxGeometry>
        </mxCell>
        <mxCell id="4" value="LEXER" style="rounded=1;whiteSpace=wrap;html=1;" parent="1" vertex="1">
          <mxGeometry x="260" y="290" width="120" height="60" as="geometry" />
        </mxCell>
        <mxCell id="11" style="edgeStyle=none;html=1;" parent="1" source="5" target="12" edge="1">
          <mxGeometry relative="1" as="geometry">
            <mxPoint x="320" y="520" as="targetPoint" />
          </mxGeometry>
        </mxCell>
        <mxCell id="36" style="edgeStyle=none;html=1;entryX=0;entryY=0.5;entryDx=0;entryDy=0;exitX=0;exitY=0.5;exitDx=0;exitDy=0;" parent="1" source="12" target="20" edge="1">
          <mxGeometry relative="1" as="geometry">
            <mxPoint x="200" y="430.0000000000001" as="targetPoint" />
            <Array as="points">
              <mxPoint x="200" y="530" />
              <mxPoint x="200" y="680" />
              <mxPoint x="450" y="680" />
            </Array>
          </mxGeometry>
        </mxCell>
        <mxCell id="5" value="TOKEN" style="rounded=0;whiteSpace=wrap;html=1;" parent="1" vertex="1">
          <mxGeometry x="260" y="400" width="120" height="60" as="geometry" />
        </mxCell>
        <mxCell id="10" style="edgeStyle=none;html=1;entryX=1;entryY=0.5;entryDx=0;entryDy=0;" parent="1" source="9" target="5" edge="1">
          <mxGeometry relative="1" as="geometry" />
        </mxCell>
        <mxCell id="32" style="edgeStyle=none;html=1;entryX=0.5;entryY=1;entryDx=0;entryDy=0;" parent="1" source="9" target="30" edge="1">
          <mxGeometry relative="1" as="geometry" />
        </mxCell>
        <mxCell id="9" value="TOKEN TYPES" style="rounded=0;whiteSpace=wrap;html=1;" parent="1" vertex="1">
          <mxGeometry x="450" y="400" width="120" height="60" as="geometry" />
        </mxCell>
        <mxCell id="12" value="AST NODES" style="rounded=0;whiteSpace=wrap;html=1;" parent="1" vertex="1">
          <mxGeometry x="260" y="500" width="120" height="60" as="geometry" />
        </mxCell>
        <mxCell id="14" style="edgeStyle=none;html=1;entryX=1;entryY=0.5;entryDx=0;entryDy=0;" parent="1" source="13" target="12" edge="1">
          <mxGeometry relative="1" as="geometry" />
        </mxCell>
        <mxCell id="33" style="edgeStyle=none;html=1;entryX=1;entryY=0.5;entryDx=0;entryDy=0;" parent="1" source="13" target="15" edge="1">
          <mxGeometry relative="1" as="geometry">
            <Array as="points">
              <mxPoint x="510" y="620" />
            </Array>
          </mxGeometry>
        </mxCell>
        <mxCell id="59" style="edgeStyle=none;html=1;entryX=0.5;entryY=0;entryDx=0;entryDy=0;" parent="1" source="13" target="20" edge="1">
          <mxGeometry relative="1" as="geometry" />
        </mxCell>
        <mxCell id="13" value="AST NODE TYPES" style="rounded=0;whiteSpace=wrap;html=1;" parent="1" vertex="1">
          <mxGeometry x="450" y="500" width="120" height="60" as="geometry" />
        </mxCell>
        <mxCell id="27" style="edgeStyle=none;html=1;entryX=0.5;entryY=0;entryDx=0;entryDy=0;" parent="1" source="15" target="25" edge="1">
          <mxGeometry relative="1" as="geometry" />
        </mxCell>
        <mxCell id="89" style="edgeStyle=none;html=1;entryX=1;entryY=0.5;entryDx=0;entryDy=0;" parent="1" source="15" target="90" edge="1">
          <mxGeometry relative="1" as="geometry">
            <mxPoint x="60" y="620" as="targetPoint" />
          </mxGeometry>
        </mxCell>
        <mxCell id="15" value="PARSE" style="rounded=0;whiteSpace=wrap;html=1;" parent="1" vertex="1">
          <mxGeometry x="260" y="590" width="120" height="60" as="geometry" />
        </mxCell>
        <mxCell id="82" style="edgeStyle=none;html=1;entryX=0;entryY=0.5;entryDx=0;entryDy=0;" parent="1" source="16" target="83" edge="1">
          <mxGeometry relative="1" as="geometry">
            <mxPoint x="1330" y="160" as="targetPoint" />
            <Array as="points">
              <mxPoint x="320" y="920" />
              <mxPoint x="1160" y="920" />
              <mxPoint x="1160" y="240" />
            </Array>
          </mxGeometry>
        </mxCell>
        <mxCell id="16" value="AST Representation" style="rounded=0;whiteSpace=wrap;html=1;" parent="1" vertex="1">
          <mxGeometry x="260" y="820" width="120" height="60" as="geometry" />
        </mxCell>
        <mxCell id="26" style="edgeStyle=none;html=1;entryX=1;entryY=0.5;entryDx=0;entryDy=0;" parent="1" source="20" target="15" edge="1">
          <mxGeometry relative="1" as="geometry">
            <Array as="points">
              <mxPoint x="510" y="620" />
            </Array>
          </mxGeometry>
        </mxCell>
        <mxCell id="35" style="edgeStyle=none;html=1;entryX=1.004;entryY=0.598;entryDx=0;entryDy=0;entryPerimeter=0;" parent="1" source="20" target="25" edge="1">
          <mxGeometry relative="1" as="geometry">
            <mxPoint x="510" y="760" as="targetPoint" />
            <Array as="points">
              <mxPoint x="510" y="746" />
            </Array>
          </mxGeometry>
        </mxCell>
        <mxCell id="51" style="edgeStyle=none;html=1;entryX=0.5;entryY=0;entryDx=0;entryDy=0;" parent="1" source="20" target="52" edge="1">
          <mxGeometry relative="1" as="geometry">
            <mxPoint x="570" y="770" as="targetPoint" />
          </mxGeometry>
        </mxCell>
        <mxCell id="20" value="STATEMENT" style="rounded=0;whiteSpace=wrap;html=1;" parent="1" vertex="1">
          <mxGeometry x="510" y="650" width="120" height="60" as="geometry" />
        </mxCell>
        <mxCell id="28" style="edgeStyle=none;html=1;entryX=0.5;entryY=0;entryDx=0;entryDy=0;" parent="1" source="25" target="16" edge="1">
          <mxGeometry relative="1" as="geometry" />
        </mxCell>
        <mxCell id="25" value="PROGRAM" style="rounded=0;whiteSpace=wrap;html=1;" parent="1" vertex="1">
          <mxGeometry x="260" y="710" width="120" height="60" as="geometry" />
        </mxCell>
        <mxCell id="31" style="edgeStyle=none;html=1;entryX=1;entryY=0.5;entryDx=0;entryDy=0;" parent="1" source="30" target="4" edge="1">
          <mxGeometry relative="1" as="geometry" />
        </mxCell>
        <mxCell id="30" value="TOKEN RULE" style="rounded=0;whiteSpace=wrap;html=1;" parent="1" vertex="1">
          <mxGeometry x="450" y="290" width="120" height="60" as="geometry" />
        </mxCell>
        <mxCell id="64" style="edgeStyle=none;html=1;" parent="1" source="38" target="13" edge="1">
          <mxGeometry relative="1" as="geometry" />
        </mxCell>
        <mxCell id="38" value="NODE TYPES" style="swimlane;fontStyle=0;childLayout=stackLayout;horizontal=1;startSize=30;horizontalStack=0;resizeParent=1;resizeParentMax=0;resizeLast=0;collapsible=1;marginBottom=0;whiteSpace=wrap;html=1;" parent="1" vertex="1">
          <mxGeometry x="690" y="500" width="140" height="150" as="geometry">
            <mxRectangle x="690" y="455" width="120" height="30" as="alternateBounds" />
          </mxGeometry>
        </mxCell>
        <mxCell id="39" value="Program" style="text;strokeColor=none;fillColor=none;align=left;verticalAlign=middle;spacingLeft=4;spacingRight=4;overflow=hidden;points=[[0,0.5],[1,0.5]];portConstraint=eastwest;rotatable=0;whiteSpace=wrap;html=1;" parent="38" vertex="1">
          <mxGeometry y="30" width="140" height="30" as="geometry" />
        </mxCell>
        <mxCell id="40" value="BinaryExpression" style="text;strokeColor=none;fillColor=none;align=left;verticalAlign=middle;spacingLeft=4;spacingRight=4;overflow=hidden;points=[[0,0.5],[1,0.5]];portConstraint=eastwest;rotatable=0;whiteSpace=wrap;html=1;" parent="38" vertex="1">
          <mxGeometry y="60" width="140" height="30" as="geometry" />
        </mxCell>
        <mxCell id="41" value="Identifier" style="text;strokeColor=none;fillColor=none;align=left;verticalAlign=middle;spacingLeft=4;spacingRight=4;overflow=hidden;points=[[0,0.5],[1,0.5]];portConstraint=eastwest;rotatable=0;whiteSpace=wrap;html=1;" parent="38" vertex="1">
          <mxGeometry y="90" width="140" height="30" as="geometry" />
        </mxCell>
        <mxCell id="63" value="NumerialLiterals" style="text;strokeColor=none;fillColor=none;align=left;verticalAlign=middle;spacingLeft=4;spacingRight=4;overflow=hidden;points=[[0,0.5],[1,0.5]];portConstraint=eastwest;rotatable=0;whiteSpace=wrap;html=1;" parent="38" vertex="1">
          <mxGeometry y="120" width="140" height="30" as="geometry" />
        </mxCell>
        <mxCell id="72" style="edgeStyle=none;html=1;entryX=1;entryY=0.5;entryDx=0;entryDy=0;" parent="1" source="42" target="9" edge="1">
          <mxGeometry relative="1" as="geometry" />
        </mxCell>
        <mxCell id="42" value="Token Types" style="swimlane;fontStyle=0;childLayout=stackLayout;horizontal=1;startSize=30;horizontalStack=0;resizeParent=1;resizeParentMax=0;resizeLast=0;collapsible=1;marginBottom=0;whiteSpace=wrap;html=1;" parent="1" vertex="1">
          <mxGeometry x="690" y="210" width="140" height="210" as="geometry" />
        </mxCell>
        <mxCell id="43" value="Equals" style="text;strokeColor=none;fillColor=none;align=left;verticalAlign=middle;spacingLeft=4;spacingRight=4;overflow=hidden;points=[[0,0.5],[1,0.5]];portConstraint=eastwest;rotatable=0;whiteSpace=wrap;html=1;" parent="42" vertex="1">
          <mxGeometry y="30" width="140" height="30" as="geometry" />
        </mxCell>
        <mxCell id="44" value="Number" style="text;strokeColor=none;fillColor=none;align=left;verticalAlign=middle;spacingLeft=4;spacingRight=4;overflow=hidden;points=[[0,0.5],[1,0.5]];portConstraint=eastwest;rotatable=0;whiteSpace=wrap;html=1;" parent="42" vertex="1">
          <mxGeometry y="60" width="140" height="30" as="geometry" />
        </mxCell>
        <mxCell id="45" value="Identifier" style="text;strokeColor=none;fillColor=none;align=left;verticalAlign=middle;spacingLeft=4;spacingRight=4;overflow=hidden;points=[[0,0.5],[1,0.5]];portConstraint=eastwest;rotatable=0;whiteSpace=wrap;html=1;" parent="42" vertex="1">
          <mxGeometry y="90" width="140" height="30" as="geometry" />
        </mxCell>
        <mxCell id="60" value="OpenParen" style="text;strokeColor=none;fillColor=none;align=left;verticalAlign=middle;spacingLeft=4;spacingRight=4;overflow=hidden;points=[[0,0.5],[1,0.5]];portConstraint=eastwest;rotatable=0;whiteSpace=wrap;html=1;" parent="42" vertex="1">
          <mxGeometry y="120" width="140" height="30" as="geometry" />
        </mxCell>
        <mxCell id="61" value="CloseParen" style="text;strokeColor=none;fillColor=none;align=left;verticalAlign=middle;spacingLeft=4;spacingRight=4;overflow=hidden;points=[[0,0.5],[1,0.5]];portConstraint=eastwest;rotatable=0;whiteSpace=wrap;html=1;" parent="42" vertex="1">
          <mxGeometry y="150" width="140" height="30" as="geometry" />
        </mxCell>
        <mxCell id="62" value="BinaryOperator" style="text;strokeColor=none;fillColor=none;align=left;verticalAlign=middle;spacingLeft=4;spacingRight=4;overflow=hidden;points=[[0,0.5],[1,0.5]];portConstraint=eastwest;rotatable=0;whiteSpace=wrap;html=1;" parent="42" vertex="1">
          <mxGeometry y="180" width="140" height="30" as="geometry" />
        </mxCell>
        <mxCell id="46" value="Expression" style="swimlane;fontStyle=0;childLayout=stackLayout;horizontal=1;startSize=30;horizontalStack=0;resizeParent=1;resizeParentMax=0;resizeLast=0;collapsible=1;marginBottom=0;whiteSpace=wrap;html=1;" parent="1" vertex="1">
          <mxGeometry x="690" y="750" width="140" height="120" as="geometry">
            <mxRectangle x="680" y="750" width="100" height="30" as="alternateBounds" />
          </mxGeometry>
        </mxCell>
        <mxCell id="47" value="BinaryExpr" style="text;strokeColor=none;fillColor=none;align=left;verticalAlign=middle;spacingLeft=4;spacingRight=4;overflow=hidden;points=[[0,0.5],[1,0.5]];portConstraint=eastwest;rotatable=0;whiteSpace=wrap;html=1;" parent="46" vertex="1">
          <mxGeometry y="30" width="140" height="30" as="geometry" />
        </mxCell>
        <mxCell id="48" value="Identifier" style="text;strokeColor=none;fillColor=none;align=left;verticalAlign=middle;spacingLeft=4;spacingRight=4;overflow=hidden;points=[[0,0.5],[1,0.5]];portConstraint=eastwest;rotatable=0;whiteSpace=wrap;html=1;" parent="46" vertex="1">
          <mxGeometry y="60" width="140" height="30" as="geometry" />
        </mxCell>
        <mxCell id="49" value="NumericalLiterals" style="text;strokeColor=none;fillColor=none;align=left;verticalAlign=middle;spacingLeft=4;spacingRight=4;overflow=hidden;points=[[0,0.5],[1,0.5]];portConstraint=eastwest;rotatable=0;whiteSpace=wrap;html=1;" parent="46" vertex="1">
          <mxGeometry y="90" width="140" height="30" as="geometry" />
        </mxCell>
        <mxCell id="52" value="EXPRESSION" style="ellipse;whiteSpace=wrap;html=1;aspect=fixed;" parent="1" vertex="1">
          <mxGeometry x="525" y="765" width="90" height="90" as="geometry" />
        </mxCell>
        <mxCell id="53" style="edgeStyle=none;html=1;" parent="1" source="52" target="46" edge="1">
          <mxGeometry relative="1" as="geometry" />
        </mxCell>
        <mxCell id="65" value="Token Types" style="swimlane;fontStyle=0;childLayout=stackLayout;horizontal=1;startSize=30;horizontalStack=0;resizeParent=1;resizeParentMax=0;resizeLast=0;collapsible=1;marginBottom=0;whiteSpace=wrap;html=1;" parent="1" vertex="1">
          <mxGeometry x="830" y="210" width="140" height="90" as="geometry" />
        </mxCell>
        <mxCell id="66" value="Let" style="text;strokeColor=none;fillColor=none;align=left;verticalAlign=middle;spacingLeft=4;spacingRight=4;overflow=hidden;points=[[0,0.5],[1,0.5]];portConstraint=eastwest;rotatable=0;whiteSpace=wrap;html=1;" parent="65" vertex="1">
          <mxGeometry y="30" width="140" height="30" as="geometry" />
        </mxCell>
        <mxCell id="67" value="EOF" style="text;strokeColor=none;fillColor=none;align=left;verticalAlign=middle;spacingLeft=4;spacingRight=4;overflow=hidden;points=[[0,0.5],[1,0.5]];portConstraint=eastwest;rotatable=0;whiteSpace=wrap;html=1;" parent="65" vertex="1">
          <mxGeometry y="60" width="140" height="30" as="geometry" />
        </mxCell>
        <mxCell id="80" style="edgeStyle=none;html=1;" parent="1" source="73" target="30" edge="1">
          <mxGeometry relative="1" as="geometry" />
        </mxCell>
        <mxCell id="73" value="Token Rules" style="swimlane;fontStyle=0;childLayout=stackLayout;horizontal=1;startSize=30;horizontalStack=0;resizeParent=1;resizeParentMax=0;resizeLast=0;collapsible=1;marginBottom=0;whiteSpace=wrap;html=1;" parent="1" vertex="1">
          <mxGeometry x="440" y="-20" width="140" height="210" as="geometry" />
        </mxCell>
        <mxCell id="74" value="^[A-Za-z_][A-za-z0-9]*" style="text;strokeColor=none;fillColor=none;align=left;verticalAlign=middle;spacingLeft=4;spacingRight=4;overflow=hidden;points=[[0,0.5],[1,0.5]];portConstraint=eastwest;rotatable=0;whiteSpace=wrap;html=1;" parent="73" vertex="1">
          <mxGeometry y="30" width="140" height="30" as="geometry" />
        </mxCell>
        <mxCell id="75" value="^[0-9]+" style="text;strokeColor=none;fillColor=none;align=left;verticalAlign=middle;spacingLeft=4;spacingRight=4;overflow=hidden;points=[[0,0.5],[1,0.5]];portConstraint=eastwest;rotatable=0;whiteSpace=wrap;html=1;" parent="73" vertex="1">
          <mxGeometry y="60" width="140" height="30" as="geometry" />
        </mxCell>
        <mxCell id="76" value="^(\\+|\\-|\\*|%|/)" style="text;strokeColor=none;fillColor=none;align=left;verticalAlign=middle;spacingLeft=4;spacingRight=4;overflow=hidden;points=[[0,0.5],[1,0.5]];portConstraint=eastwest;rotatable=0;whiteSpace=wrap;html=1;" parent="73" vertex="1">
          <mxGeometry y="90" width="140" height="30" as="geometry" />
        </mxCell>
        <mxCell id="77" value="^\\(" style="text;strokeColor=none;fillColor=none;align=left;verticalAlign=middle;spacingLeft=4;spacingRight=4;overflow=hidden;points=[[0,0.5],[1,0.5]];portConstraint=eastwest;rotatable=0;whiteSpace=wrap;html=1;" parent="73" vertex="1">
          <mxGeometry y="120" width="140" height="30" as="geometry" />
        </mxCell>
        <mxCell id="78" value="^\\)" style="text;strokeColor=none;fillColor=none;align=left;verticalAlign=middle;spacingLeft=4;spacingRight=4;overflow=hidden;points=[[0,0.5],[1,0.5]];portConstraint=eastwest;rotatable=0;whiteSpace=wrap;html=1;" parent="73" vertex="1">
          <mxGeometry y="150" width="140" height="30" as="geometry" />
        </mxCell>
        <mxCell id="79" value="^=" style="text;strokeColor=none;fillColor=none;align=left;verticalAlign=middle;spacingLeft=4;spacingRight=4;overflow=hidden;points=[[0,0.5],[1,0.5]];portConstraint=eastwest;rotatable=0;whiteSpace=wrap;html=1;" parent="73" vertex="1">
          <mxGeometry y="180" width="140" height="30" as="geometry" />
        </mxCell>
        <mxCell id="81" value="&lt;h1 style=&quot;margin-top: 0px;&quot;&gt;Interpretation&lt;/h1&gt;&lt;p&gt;Execute code line by line&lt;/p&gt;" style="text;html=1;whiteSpace=wrap;overflow=hidden;rounded=0;" parent="1" vertex="1">
          <mxGeometry x="20" y="10" width="180" height="120" as="geometry" />
        </mxCell>
        <mxCell id="95" value="" style="edgeStyle=none;html=1;" parent="1" source="83" target="93" edge="1">
          <mxGeometry relative="1" as="geometry" />
        </mxCell>
        <mxCell id="83" value="Interpreter" style="rounded=0;whiteSpace=wrap;html=1;" parent="1" vertex="1">
          <mxGeometry x="1190" y="210" width="120" height="60" as="geometry" />
        </mxCell>
        <mxCell id="86" style="edgeStyle=none;html=1;entryX=0.5;entryY=0;entryDx=0;entryDy=0;" parent="1" source="84" target="83" edge="1">
          <mxGeometry relative="1" as="geometry" />
        </mxCell>
        <mxCell id="84" value="Values" style="rounded=0;whiteSpace=wrap;html=1;" parent="1" vertex="1">
          <mxGeometry x="1190" y="110" width="120" height="60" as="geometry" />
        </mxCell>
        <mxCell id="88" value="LEXER" style="rounded=1;whiteSpace=wrap;html=1;" parent="1" vertex="1">
          <mxGeometry x="-60" y="285" width="120" height="60" as="geometry" />
        </mxCell>
        <mxCell id="90" value="PARSE" style="rounded=1;whiteSpace=wrap;html=1;" parent="1" vertex="1">
          <mxGeometry x="-60" y="590" width="120" height="60" as="geometry" />
        </mxCell>
        <mxCell id="98" value="" style="edgeStyle=none;html=1;" parent="1" source="93" target="97" edge="1">
          <mxGeometry relative="1" as="geometry" />
        </mxCell>
        <mxCell id="93" value="Evaluate" style="rounded=1;whiteSpace=wrap;html=1;" parent="1" vertex="1">
          <mxGeometry x="1190" y="320" width="120" height="60" as="geometry" />
        </mxCell>
        <mxCell id="106" style="edgeStyle=none;html=1;entryX=0;entryY=0.5;entryDx=0;entryDy=0;" parent="1" source="97" target="103" edge="1">
          <mxGeometry relative="1" as="geometry">
            <Array as="points">
              <mxPoint x="1250" y="535" />
            </Array>
          </mxGeometry>
        </mxCell>
        <mxCell id="107" style="edgeStyle=none;html=1;entryX=0;entryY=0.5;entryDx=0;entryDy=0;" parent="1" source="97" target="105" edge="1">
          <mxGeometry relative="1" as="geometry">
            <Array as="points">
              <mxPoint x="1250" y="575" />
            </Array>
          </mxGeometry>
        </mxCell>
        <mxCell id="108" style="edgeStyle=none;html=1;entryX=0;entryY=0.5;entryDx=0;entryDy=0;" parent="1" source="97" target="109" edge="1">
          <mxGeometry relative="1" as="geometry">
            <mxPoint x="1290.0000000000005" y="640" as="targetPoint" />
            <Array as="points">
              <mxPoint x="1250" y="615" />
            </Array>
          </mxGeometry>
        </mxCell>
        <mxCell id="111" style="edgeStyle=none;html=1;entryX=0;entryY=0.5;entryDx=0;entryDy=0;" parent="1" source="97" target="110" edge="1">
          <mxGeometry relative="1" as="geometry">
            <Array as="points">
              <mxPoint x="1250" y="655" />
            </Array>
          </mxGeometry>
        </mxCell>
        <mxCell id="113" style="edgeStyle=none;html=1;entryX=0;entryY=0.5;entryDx=0;entryDy=0;" parent="1" source="97" target="112" edge="1">
          <mxGeometry relative="1" as="geometry">
            <Array as="points">
              <mxPoint x="1250" y="740" />
            </Array>
          </mxGeometry>
        </mxCell>
        <mxCell id="144" style="edgeStyle=none;html=1;entryX=0;entryY=0.5;entryDx=0;entryDy=0;" parent="1" source="97" target="143" edge="1">
          <mxGeometry relative="1" as="geometry">
            <Array as="points">
              <mxPoint x="1250" y="695" />
            </Array>
          </mxGeometry>
        </mxCell>
        <mxCell id="97" value="Eval: stmt, Env" style="rhombus;whiteSpace=wrap;html=1;" parent="1" vertex="1">
          <mxGeometry x="1200" y="420" width="100" height="80" as="geometry" />
        </mxCell>
        <mxCell id="116" style="edgeStyle=none;html=1;entryX=0;entryY=0.5;entryDx=0;entryDy=0;" parent="1" source="103" target="115" edge="1">
          <mxGeometry relative="1" as="geometry" />
        </mxCell>
        <mxCell id="103" value="NumericalLiteral" style="rounded=1;whiteSpace=wrap;html=1;" parent="1" vertex="1">
          <mxGeometry x="1290" y="520" width="120" height="30" as="geometry" />
        </mxCell>
        <mxCell id="122" style="edgeStyle=none;html=1;entryX=0;entryY=0.5;entryDx=0;entryDy=0;" parent="1" source="105" target="119" edge="1">
          <mxGeometry relative="1" as="geometry" />
        </mxCell>
        <mxCell id="105" value="NullLiteral" style="rounded=1;whiteSpace=wrap;html=1;" parent="1" vertex="1">
          <mxGeometry x="1290" y="560" width="120" height="30" as="geometry" />
        </mxCell>
        <mxCell id="126" style="edgeStyle=none;html=1;" parent="1" source="109" target="125" edge="1">
          <mxGeometry relative="1" as="geometry" />
        </mxCell>
        <mxCell id="109" value="BinaryExpr" style="rounded=1;whiteSpace=wrap;html=1;" parent="1" vertex="1">
          <mxGeometry x="1290" y="600" width="120" height="30" as="geometry" />
        </mxCell>
        <mxCell id="127" style="edgeStyle=none;html=1;entryX=0;entryY=0.5;entryDx=0;entryDy=0;" parent="1" source="110" target="134" edge="1">
          <mxGeometry relative="1" as="geometry">
            <mxPoint x="1730" y="655" as="targetPoint" />
          </mxGeometry>
        </mxCell>
        <mxCell id="110" value="Program" style="rounded=1;whiteSpace=wrap;html=1;" parent="1" vertex="1">
          <mxGeometry x="1290" y="640" width="120" height="30" as="geometry" />
        </mxCell>
        <mxCell id="132" style="edgeStyle=none;html=1;entryX=0;entryY=0.5;entryDx=0;entryDy=0;" parent="1" source="112" target="131" edge="1">
          <mxGeometry relative="1" as="geometry" />
        </mxCell>
        <mxCell id="112" value="Default" style="rounded=1;whiteSpace=wrap;html=1;" parent="1" vertex="1">
          <mxGeometry x="1290" y="725" width="120" height="30" as="geometry" />
        </mxCell>
        <mxCell id="117" style="edgeStyle=none;html=1;" parent="1" source="115" edge="1">
          <mxGeometry relative="1" as="geometry">
            <mxPoint x="1410" y="535.0000000000002" as="targetPoint" />
          </mxGeometry>
        </mxCell>
        <mxCell id="115" value="Return NumericLitral" style="rounded=1;whiteSpace=wrap;html=1;" parent="1" vertex="1">
          <mxGeometry x="1460" y="520" width="120" height="30" as="geometry" />
        </mxCell>
        <mxCell id="121" style="edgeStyle=none;html=1;entryX=1;entryY=0.5;entryDx=0;entryDy=0;" parent="1" source="119" target="105" edge="1">
          <mxGeometry relative="1" as="geometry" />
        </mxCell>
        <mxCell id="119" value="Return Null" style="rounded=1;whiteSpace=wrap;html=1;" parent="1" vertex="1">
          <mxGeometry x="1460" y="560" width="120" height="30" as="geometry" />
        </mxCell>
        <mxCell id="167" style="edgeStyle=none;html=1;entryX=0.5;entryY=1;entryDx=0;entryDy=0;" parent="1" source="125" target="135" edge="1">
          <mxGeometry relative="1" as="geometry" />
        </mxCell>
        <mxCell id="172" style="edgeStyle=none;html=1;entryX=1;entryY=0.5;entryDx=0;entryDy=0;" parent="1" source="125" target="109" edge="1">
          <mxGeometry relative="1" as="geometry" />
        </mxCell>
        <mxCell id="125" value="Eval_Binary_expr" style="rounded=1;whiteSpace=wrap;html=1;" parent="1" vertex="1">
          <mxGeometry x="1590" y="592.5" width="120" height="45" as="geometry" />
        </mxCell>
        <mxCell id="133" style="edgeStyle=none;html=1;entryX=1;entryY=0.5;entryDx=0;entryDy=0;" parent="1" source="131" target="112" edge="1">
          <mxGeometry relative="1" as="geometry" />
        </mxCell>
        <mxCell id="131" value="ThrowExit Error" style="rounded=1;whiteSpace=wrap;html=1;" parent="1" vertex="1">
          <mxGeometry x="1460" y="725" width="120" height="30" as="geometry" />
        </mxCell>
        <mxCell id="138" style="edgeStyle=none;html=1;entryX=1;entryY=0.5;entryDx=0;entryDy=0;" parent="1" source="134" target="110" edge="1">
          <mxGeometry relative="1" as="geometry" />
        </mxCell>
        <mxCell id="134" value="Eval_prog" style="rounded=1;whiteSpace=wrap;html=1;" parent="1" vertex="1">
          <mxGeometry x="1720" y="632.5" width="120" height="45" as="geometry" />
        </mxCell>
        <mxCell id="166" style="edgeStyle=none;html=1;entryX=0.5;entryY=0;entryDx=0;entryDy=0;" parent="1" source="135" target="125" edge="1">
          <mxGeometry relative="1" as="geometry" />
        </mxCell>
        <mxCell id="135" value="eval_numeric" style="rounded=1;whiteSpace=wrap;html=1;" parent="1" vertex="1">
          <mxGeometry x="1607.5" y="550" width="85" height="20" as="geometry" />
        </mxCell>
        <mxCell id="139" style="edgeStyle=none;html=1;" parent="1" source="134" target="134" edge="1">
          <mxGeometry relative="1" as="geometry" />
        </mxCell>
        <mxCell id="162" style="edgeStyle=none;html=1;" parent="1" source="142" edge="1">
          <mxGeometry relative="1" as="geometry">
            <mxPoint x="1740" y="630" as="targetPoint" />
            <Array as="points">
              <mxPoint x="1400" y="240" />
              <mxPoint x="1400" y="480" />
              <mxPoint x="1740" y="480" />
            </Array>
          </mxGeometry>
        </mxCell>
        <mxCell id="173" style="edgeStyle=none;html=1;entryX=0;entryY=0.5;entryDx=0;entryDy=0;" parent="1" source="142" target="156" edge="1">
          <mxGeometry relative="1" as="geometry">
            <Array as="points">
              <mxPoint x="1490" y="295" />
            </Array>
          </mxGeometry>
        </mxCell>
        <mxCell id="174" style="edgeStyle=none;html=1;entryX=0;entryY=0.5;entryDx=0;entryDy=0;" parent="1" source="142" target="157" edge="1">
          <mxGeometry relative="1" as="geometry">
            <Array as="points">
              <mxPoint x="1490" y="335" />
            </Array>
          </mxGeometry>
        </mxCell>
        <mxCell id="175" style="edgeStyle=none;html=1;entryX=0;entryY=0.5;entryDx=0;entryDy=0;" parent="1" source="142" target="158" edge="1">
          <mxGeometry relative="1" as="geometry">
            <Array as="points">
              <mxPoint x="1490" y="375" />
            </Array>
          </mxGeometry>
        </mxCell>
        <mxCell id="176" style="edgeStyle=none;html=1;entryX=0;entryY=0.5;entryDx=0;entryDy=0;" parent="1" source="142" target="160" edge="1">
          <mxGeometry relative="1" as="geometry">
            <Array as="points">
              <mxPoint x="1490" y="415" />
            </Array>
          </mxGeometry>
        </mxCell>
        <mxCell id="142" value="Environment" style="rounded=0;whiteSpace=wrap;html=1;" parent="1" vertex="1">
          <mxGeometry x="1430" y="210" width="120" height="60" as="geometry" />
        </mxCell>
        <mxCell id="168" style="edgeStyle=none;html=1;entryX=0;entryY=0.5;entryDx=0;entryDy=0;" parent="1" source="143" target="169" edge="1">
          <mxGeometry relative="1" as="geometry">
            <mxPoint x="1870" y="695" as="targetPoint" />
          </mxGeometry>
        </mxCell>
        <mxCell id="143" value="Identifier" style="rounded=1;whiteSpace=wrap;html=1;" parent="1" vertex="1">
          <mxGeometry x="1290" y="680" width="120" height="30" as="geometry" />
        </mxCell>
        <mxCell id="154" style="edgeStyle=none;html=1;entryX=1;entryY=0.5;entryDx=0;entryDy=0;exitX=-0.023;exitY=0.491;exitDx=0;exitDy=0;exitPerimeter=0;" parent="1" source="146" target="84" edge="1">
          <mxGeometry relative="1" as="geometry" />
        </mxCell>
        <mxCell id="146" value="Values" style="swimlane;fontStyle=0;childLayout=stackLayout;horizontal=1;startSize=30;horizontalStack=0;resizeParent=1;resizeParentMax=0;resizeLast=0;collapsible=1;marginBottom=0;whiteSpace=wrap;html=1;" parent="1" vertex="1" collapsed="1">
          <mxGeometry x="1360" y="20" width="110" height="30" as="geometry">
            <mxRectangle x="1360" y="20" width="140" height="150" as="alternateBounds" />
          </mxGeometry>
        </mxCell>
        <mxCell id="151" style="edgeStyle=none;html=1;entryX=1;entryY=0.5;entryDx=0;entryDy=0;" parent="146" source="147" target="150" edge="1">
          <mxGeometry relative="1" as="geometry">
            <Array as="points">
              <mxPoint x="200" y="45" />
              <mxPoint x="200" y="105" />
            </Array>
          </mxGeometry>
        </mxCell>
        <mxCell id="147" value="Runtime" style="text;strokeColor=none;fillColor=none;align=left;verticalAlign=middle;spacingLeft=4;spacingRight=4;overflow=hidden;points=[[0,0.5],[1,0.5]];portConstraint=eastwest;rotatable=0;whiteSpace=wrap;html=1;" parent="146" vertex="1">
          <mxGeometry y="30" width="140" height="30" as="geometry" />
        </mxCell>
        <mxCell id="148" value="NullVal" style="text;strokeColor=none;fillColor=none;align=left;verticalAlign=middle;spacingLeft=4;spacingRight=4;overflow=hidden;points=[[0,0.5],[1,0.5]];portConstraint=eastwest;rotatable=0;whiteSpace=wrap;html=1;" parent="146" vertex="1">
          <mxGeometry y="60" width="140" height="30" as="geometry" />
        </mxCell>
        <mxCell id="150" value="BooleanVal" style="text;strokeColor=none;fillColor=none;align=left;verticalAlign=middle;spacingLeft=4;spacingRight=4;overflow=hidden;points=[[0,0.5],[1,0.5]];portConstraint=eastwest;rotatable=0;whiteSpace=wrap;html=1;" parent="146" vertex="1">
          <mxGeometry y="90" width="140" height="30" as="geometry" />
        </mxCell>
        <mxCell id="149" value="NumberVal" style="text;strokeColor=none;fillColor=none;align=left;verticalAlign=middle;spacingLeft=4;spacingRight=4;overflow=hidden;points=[[0,0.5],[1,0.5]];portConstraint=eastwest;rotatable=0;whiteSpace=wrap;html=1;" parent="146" vertex="1">
          <mxGeometry y="120" width="140" height="30" as="geometry" />
        </mxCell>
        <mxCell id="152" style="edgeStyle=none;html=1;entryX=1;entryY=0.5;entryDx=0;entryDy=0;exitX=1;exitY=0.5;exitDx=0;exitDy=0;" parent="146" source="147" target="149" edge="1">
          <mxGeometry relative="1" as="geometry">
            <mxPoint x="140" y="80" as="sourcePoint" />
            <mxPoint x="140" y="140" as="targetPoint" />
            <Array as="points">
              <mxPoint x="200" y="45" />
              <mxPoint x="200" y="135" />
            </Array>
          </mxGeometry>
        </mxCell>
        <mxCell id="156" value="declareVar" style="rounded=1;whiteSpace=wrap;html=1;" parent="1" vertex="1">
          <mxGeometry x="1510" y="280" width="120" height="30" as="geometry" />
        </mxCell>
        <mxCell id="157" value="assignVar" style="rounded=1;whiteSpace=wrap;html=1;" parent="1" vertex="1">
          <mxGeometry x="1510" y="320" width="120" height="30" as="geometry" />
        </mxCell>
        <mxCell id="158" value="lookupVar" style="rounded=1;whiteSpace=wrap;html=1;" parent="1" vertex="1">
          <mxGeometry x="1510" y="360" width="120" height="30" as="geometry" />
        </mxCell>
        <mxCell id="159" value="constructor" style="rounded=1;whiteSpace=wrap;html=1;" parent="1" vertex="1">
          <mxGeometry x="1570" y="225" width="120" height="30" as="geometry" />
        </mxCell>
        <mxCell id="160" value="resolve" style="rounded=1;whiteSpace=wrap;html=1;" parent="1" vertex="1">
          <mxGeometry x="1510" y="400" width="120" height="30" as="geometry" />
        </mxCell>
        <mxCell id="163" style="edgeStyle=none;html=1;exitX=0;exitY=0.5;exitDx=0;exitDy=0;" parent="1" source="142" edge="1">
          <mxGeometry relative="1" as="geometry">
            <mxPoint x="1610" y="590" as="targetPoint" />
            <mxPoint x="1420" y="239.5" as="sourcePoint" />
            <Array as="points">
              <mxPoint x="1390" y="239.5" />
              <mxPoint x="1390" y="350" />
              <mxPoint x="1390" y="479.5" />
              <mxPoint x="1610" y="479.5" />
            </Array>
          </mxGeometry>
        </mxCell>
        <mxCell id="171" style="edgeStyle=none;html=1;entryX=1;entryY=0.5;entryDx=0;entryDy=0;" parent="1" source="169" target="143" edge="1">
          <mxGeometry relative="1" as="geometry" />
        </mxCell>
        <mxCell id="169" value="eval_identifier" style="rounded=1;whiteSpace=wrap;html=1;" parent="1" vertex="1">
          <mxGeometry x="1870" y="672.5" width="120" height="45" as="geometry" />
        </mxCell>
        <mxCell id="170" style="edgeStyle=none;html=1;exitX=0;exitY=0.5;exitDx=0;exitDy=0;entryX=0.25;entryY=0;entryDx=0;entryDy=0;" parent="1" source="142" target="169" edge="1">
          <mxGeometry relative="1" as="geometry">
            <mxPoint x="1900" y="670" as="targetPoint" />
            <mxPoint x="1410" y="240" as="sourcePoint" />
            <Array as="points">
              <mxPoint x="1380" y="240" />
              <mxPoint x="1380" y="480" />
              <mxPoint x="1900" y="480" />
            </Array>
          </mxGeometry>
        </mxCell>
        <mxCell id="178" value="Expression" style="rounded=0;whiteSpace=wrap;html=1;" parent="1" vertex="1">
          <mxGeometry x="2080" y="300" width="120" height="60" as="geometry" />
        </mxCell>
        <mxCell id="179" value="Eval Statement" style="rounded=0;whiteSpace=wrap;html=1;" parent="1" vertex="1">
          <mxGeometry x="2080" y="370" width="120" height="60" as="geometry" />
        </mxCell>
        <mxCell id="181" value="&lt;h1 style=&quot;margin-top: 0px;&quot;&gt;statements&lt;/h1&gt;&lt;div&gt;SWITCH STATEMENT&lt;/div&gt;&lt;p&gt;NumericalLitral&lt;/p&gt;&lt;p&gt;Identifier&lt;/p&gt;&lt;p&gt;ObjectLiteral&lt;/p&gt;&lt;p&gt;CallExpr&lt;/p&gt;&lt;p&gt;ASsignmentExpr&lt;/p&gt;&lt;p&gt;BinaryExpr&lt;/p&gt;&lt;p&gt;Program&lt;/p&gt;&lt;p&gt;VarDeclaration&lt;/p&gt;&lt;p&gt;FunctionDeleration&lt;/p&gt;" style="text;html=1;whiteSpace=wrap;overflow=hidden;rounded=0;" parent="1" vertex="1">
          <mxGeometry x="2090" y="600" width="200" height="320" as="geometry" />
        </mxCell>
        <mxCell id="182" value="&lt;h1 style=&quot;margin-top: 0px;&quot;&gt;Values&lt;/h1&gt;&lt;div&gt;CLASS VALUES&lt;/div&gt;&lt;p&gt;&lt;span style=&quot;background-color: transparent;&quot;&gt;create a function to set Value&lt;/span&gt;&lt;/p&gt;&lt;p&gt;&lt;span style=&quot;background-color: transparent;&quot;&gt;&lt;br&gt;&lt;/span&gt;&lt;/p&gt;&lt;p&gt;&lt;span style=&quot;background-color: transparent;&quot;&gt;RuntimeVal&lt;/span&gt;&lt;/p&gt;&lt;p&gt;NullVal extends RuntimeVal&lt;/p&gt;&lt;p&gt;BooleanVal -runtumeval&lt;/p&gt;&lt;p&gt;NumberVal - RuntimeVal&lt;/p&gt;&lt;p&gt;ObjectVal - Runtimeval&lt;/p&gt;&lt;p&gt;NativeValue - Runtumeval&lt;/p&gt;&lt;p&gt;Functionvalue - RuntimeVal&lt;/p&gt;" style="text;html=1;whiteSpace=wrap;overflow=hidden;rounded=0;" parent="1" vertex="1">
          <mxGeometry x="2320" y="470" width="200" height="320" as="geometry" />
        </mxCell>
        <mxCell id="183" value="&lt;h1 style=&quot;margin-top: 0px;&quot;&gt;environment&lt;/h1&gt;&lt;div&gt;Environment ..Onward&lt;/div&gt;&lt;div&gt;&lt;br&gt;&lt;/div&gt;&lt;div&gt;createGlobalEnv&lt;/div&gt;" style="text;html=1;whiteSpace=wrap;overflow=hidden;rounded=0;" parent="1" vertex="1">
          <mxGeometry x="2090" y="470" width="200" height="320" as="geometry" />
        </mxCell>
        <mxCell id="184" value="CreateGlobalEnv" style="rounded=0;whiteSpace=wrap;html=1;" parent="1" vertex="1">
          <mxGeometry x="1510" y="130" width="120" height="60" as="geometry" />
        </mxCell>
      </root>
    </mxGraphModel>
  </diagram>
  <diagram id="LTxq1Jwf3aX5InKFyEkT" name="Level 1">
    <mxGraphModel dx="1112" dy="465" grid="1" gridSize="10" guides="1" tooltips="1" connect="1" arrows="1" fold="1" page="1" pageScale="1" pageWidth="850" pageHeight="1100" background="#ffffff" backgroundImage="{&quot;src&quot;:&quot;data:page/id,EAgaK2jqpz9WzRcssgec&quot;}" math="0" shadow="0">
      <root>
        <mxCell id="0" />
        <mxCell id="1" parent="0" />
        <mxCell id="vUZ93kLFSxVSBMF7oBYM-5" style="edgeStyle=none;html=1;" parent="1" source="vUZ93kLFSxVSBMF7oBYM-1" target="vUZ93kLFSxVSBMF7oBYM-4" edge="1">
          <mxGeometry relative="1" as="geometry">
            <Array as="points">
              <mxPoint x="290" y="470" />
            </Array>
          </mxGeometry>
        </mxCell>
        <mxCell id="vUZ93kLFSxVSBMF7oBYM-1" value="SOURCE.MPIPE" style="rounded=0;whiteSpace=wrap;html=1;" parent="1" vertex="1">
          <mxGeometry x="230" y="545" width="120" height="30" as="geometry" />
        </mxCell>
        <mxCell id="vUZ93kLFSxVSBMF7oBYM-10" style="edgeStyle=none;html=1;entryX=0.5;entryY=0;entryDx=0;entryDy=0;" parent="1" source="vUZ93kLFSxVSBMF7oBYM-4" target="IJd7MAV9I_w_gYxnLg9M-28" edge="1">
          <mxGeometry relative="1" as="geometry">
            <mxPoint x="435" y="550" as="targetPoint" />
          </mxGeometry>
        </mxCell>
        <mxCell id="vUZ93kLFSxVSBMF7oBYM-4" value="LEXER" style="rounded=1;whiteSpace=wrap;html=1;" parent="1" vertex="1">
          <mxGeometry x="390" y="425" width="90" height="90" as="geometry" />
        </mxCell>
        <mxCell id="IJd7MAV9I_w_gYxnLg9M-20" style="edgeStyle=none;html=1;entryX=0.5;entryY=0;entryDx=0;entryDy=0;" parent="1" source="vUZ93kLFSxVSBMF7oBYM-8" target="IJd7MAV9I_w_gYxnLg9M-19" edge="1">
          <mxGeometry relative="1" as="geometry" />
        </mxCell>
        <mxCell id="vUZ93kLFSxVSBMF7oBYM-8" value="TOKEN Types" style="rounded=0;whiteSpace=wrap;html=1;" parent="1" vertex="1">
          <mxGeometry x="525" y="400" width="120" height="30" as="geometry" />
        </mxCell>
        <mxCell id="vUZ93kLFSxVSBMF7oBYM-22" style="edgeStyle=none;html=1;" parent="1" source="vUZ93kLFSxVSBMF7oBYM-11" target="IJd7MAV9I_w_gYxnLg9M-2" edge="1">
          <mxGeometry relative="1" as="geometry">
            <mxPoint x="850" y="480" as="targetPoint" />
          </mxGeometry>
        </mxCell>
        <mxCell id="IJd7MAV9I_w_gYxnLg9M-38" style="edgeStyle=none;html=1;" parent="1" source="vUZ93kLFSxVSBMF7oBYM-11" target="vUZ93kLFSxVSBMF7oBYM-17" edge="1">
          <mxGeometry relative="1" as="geometry" />
        </mxCell>
        <mxCell id="vUZ93kLFSxVSBMF7oBYM-11" value="INTERPRETER" style="rounded=1;whiteSpace=wrap;html=1;" parent="1" vertex="1">
          <mxGeometry x="670" y="540" width="220" height="40" as="geometry" />
        </mxCell>
        <mxCell id="IJd7MAV9I_w_gYxnLg9M-32" style="edgeStyle=none;html=1;" parent="1" source="vUZ93kLFSxVSBMF7oBYM-17" target="IJd7MAV9I_w_gYxnLg9M-31" edge="1">
          <mxGeometry relative="1" as="geometry" />
        </mxCell>
        <mxCell id="IJd7MAV9I_w_gYxnLg9M-39" style="edgeStyle=none;html=1;entryX=1;entryY=0.5;entryDx=0;entryDy=0;" parent="1" source="vUZ93kLFSxVSBMF7oBYM-17" target="vUZ93kLFSxVSBMF7oBYM-11" edge="1">
          <mxGeometry relative="1" as="geometry" />
        </mxCell>
        <mxCell id="vUZ93kLFSxVSBMF7oBYM-17" value="Evaluate&lt;div&gt;(Stms , Expression)&lt;/div&gt;" style="rounded=1;whiteSpace=wrap;html=1;" parent="1" vertex="1">
          <mxGeometry x="930" y="525" width="120" height="70" as="geometry" />
        </mxCell>
        <mxCell id="vUZ93kLFSxVSBMF7oBYM-25" style="edgeStyle=none;html=1;entryX=0;entryY=0.5;entryDx=0;entryDy=0;" parent="1" source="vUZ93kLFSxVSBMF7oBYM-24" target="vUZ93kLFSxVSBMF7oBYM-1" edge="1">
          <mxGeometry relative="1" as="geometry" />
        </mxCell>
        <mxCell id="vUZ93kLFSxVSBMF7oBYM-24" value="Start" style="ellipse;whiteSpace=wrap;html=1;" parent="1" vertex="1">
          <mxGeometry x="70" y="530" width="120" height="60" as="geometry" />
        </mxCell>
        <mxCell id="IJd7MAV9I_w_gYxnLg9M-1" value="End" style="ellipse;whiteSpace=wrap;html=1;" parent="1" vertex="1">
          <mxGeometry x="890" y="420" width="120" height="60" as="geometry" />
        </mxCell>
        <mxCell id="IJd7MAV9I_w_gYxnLg9M-4" style="edgeStyle=none;html=1;" parent="1" source="IJd7MAV9I_w_gYxnLg9M-2" target="IJd7MAV9I_w_gYxnLg9M-1" edge="1">
          <mxGeometry relative="1" as="geometry">
            <mxPoint x="970" y="450" as="targetPoint" />
          </mxGeometry>
        </mxCell>
        <mxCell id="IJd7MAV9I_w_gYxnLg9M-2" value="CLI (Command Line interface)" style="rounded=1;whiteSpace=wrap;html=1;" parent="1" vertex="1">
          <mxGeometry x="700" y="420" width="160" height="60" as="geometry" />
        </mxCell>
        <mxCell id="IJd7MAV9I_w_gYxnLg9M-5" style="edgeStyle=none;html=1;" parent="1" source="vUZ93kLFSxVSBMF7oBYM-17" target="vUZ93kLFSxVSBMF7oBYM-17" edge="1">
          <mxGeometry relative="1" as="geometry" />
        </mxCell>
        <mxCell id="IJd7MAV9I_w_gYxnLg9M-7" value="&lt;font style=&quot;font-size: 24px;&quot;&gt;LEVEL 1 - Diagram&lt;/font&gt;" style="text;html=1;align=center;verticalAlign=middle;whiteSpace=wrap;rounded=0;" parent="1" vertex="1">
          <mxGeometry x="400" y="330" width="370" height="30" as="geometry" />
        </mxCell>
        <mxCell id="IJd7MAV9I_w_gYxnLg9M-15" style="edgeStyle=none;html=1;entryX=0;entryY=0.5;entryDx=0;entryDy=0;" parent="1" source="IJd7MAV9I_w_gYxnLg9M-14" target="vUZ93kLFSxVSBMF7oBYM-11" edge="1">
          <mxGeometry relative="1" as="geometry" />
        </mxCell>
        <mxCell id="IJd7MAV9I_w_gYxnLg9M-30" style="edgeStyle=none;html=1;entryX=0.5;entryY=1;entryDx=0;entryDy=0;" parent="1" source="IJd7MAV9I_w_gYxnLg9M-14" target="IJd7MAV9I_w_gYxnLg9M-2" edge="1">
          <mxGeometry relative="1" as="geometry">
            <Array as="points">
              <mxPoint x="585" y="500" />
              <mxPoint x="780" y="500" />
            </Array>
          </mxGeometry>
        </mxCell>
        <mxCell id="IJd7MAV9I_w_gYxnLg9M-14" value="AST Tree" style="rounded=0;whiteSpace=wrap;html=1;" parent="1" vertex="1">
          <mxGeometry x="525" y="545" width="120" height="30" as="geometry" />
        </mxCell>
        <mxCell id="IJd7MAV9I_w_gYxnLg9M-18" style="edgeStyle=none;html=1;entryX=0.5;entryY=1;entryDx=0;entryDy=0;" parent="1" source="IJd7MAV9I_w_gYxnLg9M-16" target="IJd7MAV9I_w_gYxnLg9M-14" edge="1">
          <mxGeometry relative="1" as="geometry">
            <mxPoint x="680" y="655" as="targetPoint" />
            <Array as="points">
              <mxPoint x="585" y="625" />
            </Array>
          </mxGeometry>
        </mxCell>
        <mxCell id="IJd7MAV9I_w_gYxnLg9M-25" style="edgeStyle=none;html=1;" parent="1" source="IJd7MAV9I_w_gYxnLg9M-16" target="IJd7MAV9I_w_gYxnLg9M-16" edge="1">
          <mxGeometry relative="1" as="geometry">
            <mxPoint x="320" y="625" as="targetPoint" />
          </mxGeometry>
        </mxCell>
        <mxCell id="IJd7MAV9I_w_gYxnLg9M-16" value="PARSER" style="rounded=1;whiteSpace=wrap;html=1;" parent="1" vertex="1">
          <mxGeometry x="360" y="600" width="150" height="50" as="geometry" />
        </mxCell>
        <mxCell id="IJd7MAV9I_w_gYxnLg9M-21" style="edgeStyle=none;html=1;entryX=1;entryY=0.5;entryDx=0;entryDy=0;" parent="1" source="IJd7MAV9I_w_gYxnLg9M-19" target="vUZ93kLFSxVSBMF7oBYM-4" edge="1">
          <mxGeometry relative="1" as="geometry" />
        </mxCell>
        <mxCell id="IJd7MAV9I_w_gYxnLg9M-19" value="TOKEN rules" style="rounded=0;whiteSpace=wrap;html=1;" parent="1" vertex="1">
          <mxGeometry x="525" y="455" width="120" height="30" as="geometry" />
        </mxCell>
        <mxCell id="IJd7MAV9I_w_gYxnLg9M-23" style="edgeStyle=none;html=1;entryX=0.5;entryY=1;entryDx=0;entryDy=0;" parent="1" source="IJd7MAV9I_w_gYxnLg9M-22" target="IJd7MAV9I_w_gYxnLg9M-16" edge="1">
          <mxGeometry relative="1" as="geometry" />
        </mxCell>
        <mxCell id="IJd7MAV9I_w_gYxnLg9M-36" style="edgeStyle=none;html=1;entryX=0.5;entryY=1;entryDx=0;entryDy=0;" parent="1" source="IJd7MAV9I_w_gYxnLg9M-22" target="vUZ93kLFSxVSBMF7oBYM-11" edge="1">
          <mxGeometry relative="1" as="geometry">
            <mxPoint x="780" y="705" as="targetPoint" />
            <Array as="points">
              <mxPoint x="780" y="705" />
            </Array>
          </mxGeometry>
        </mxCell>
        <mxCell id="IJd7MAV9I_w_gYxnLg9M-22" value="AST NodeType" style="rounded=0;whiteSpace=wrap;html=1;" parent="1" vertex="1">
          <mxGeometry x="375" y="690" width="120" height="30" as="geometry" />
        </mxCell>
        <mxCell id="IJd7MAV9I_w_gYxnLg9M-26" style="edgeStyle=none;html=1;" parent="1" source="vUZ93kLFSxVSBMF7oBYM-4" target="vUZ93kLFSxVSBMF7oBYM-4" edge="1">
          <mxGeometry relative="1" as="geometry" />
        </mxCell>
        <mxCell id="IJd7MAV9I_w_gYxnLg9M-29" style="edgeStyle=none;html=1;entryX=0.5;entryY=0;entryDx=0;entryDy=0;" parent="1" source="IJd7MAV9I_w_gYxnLg9M-28" target="IJd7MAV9I_w_gYxnLg9M-16" edge="1">
          <mxGeometry relative="1" as="geometry" />
        </mxCell>
        <mxCell id="IJd7MAV9I_w_gYxnLg9M-28" value="List of TOKEN" style="rounded=0;whiteSpace=wrap;html=1;" parent="1" vertex="1">
          <mxGeometry x="375" y="545" width="120" height="30" as="geometry" />
        </mxCell>
        <mxCell id="IJd7MAV9I_w_gYxnLg9M-33" style="edgeStyle=none;html=1;" parent="1" source="IJd7MAV9I_w_gYxnLg9M-31" target="vUZ93kLFSxVSBMF7oBYM-17" edge="1">
          <mxGeometry relative="1" as="geometry" />
        </mxCell>
        <mxCell id="IJd7MAV9I_w_gYxnLg9M-31" value="Environment" style="rounded=1;whiteSpace=wrap;html=1;" parent="1" vertex="1">
          <mxGeometry x="910" y="620" width="160" height="40" as="geometry" />
        </mxCell>
      </root>
    </mxGraphModel>
  </diagram>
</mxfile>
